<?xml version="1.0" encoding="utf-8"?>
<!-- Generator: Adobe Illustrator 19.2.1, SVG Export Plug-In . SVG Version: 6.00 Build 0)  -->
<svg version="1.1" id="Layer_1" xmlns="http://www.w3.org/2000/svg" xmlns:xlink="http://www.w3.org/1999/xlink" x="0px" y="0px"
	 viewBox="0 0 480 480" style="enable-background:new 0 0 480 480;" xml:space="preserve">
<style type="text/css">
	.st0{fill:#F3A385;}
	.st1{fill:#F3A385;stroke:#FFFFFF;stroke-width:4;stroke-miterlimit:10;}
	.st2{fill:#FFFBFA;stroke:#FFFFFF;stroke-width:4;stroke-miterlimit:10;}
</style>
<rect x="0" y="0" class="st0" width="480" height="480"/>
<g>
	<g>
		<rect x="58.5" y="199.4" class="st1" width="361" height="157.5"/>
		<path class="st2" d="M421.7,359.1H56.3V197.2h365.4L421.7,359.1L421.7,359.1z M60.7,354.7h356.6V201.6H60.7V354.7z"/>
	</g>
	<g>
		<polygon class="st1" points="376.2,132.9 102.3,132.9 58.5,199.4 420,199.4 		"/>
		<path class="st2" d="M424,201.6H54.5l46.6-70.9h276.3L424,201.6z M62.6,197.2h353.3L375,135.1H103.5L62.6,197.2z"/>
	</g>
	<g>
		<g>
			<rect x="148.2" y="185.8" class="st1" width="182.5" height="168.9"/>
		</g>
		<g>
			<path class="st2" d="M328.1,188v164.5H150.4V188H328.1 M332.5,183.6H146v173.3h186.9V183.6H332.5z"/>
		</g>
	</g>
	<g>
		<g>
			<path class="st1" d="M398.5,199.4v91.5c0,11.8,9.6,21,21,21c11.8,0,21-9.6,21-21v-91.5H398.5z"/>
			<path class="st2" d="M419.5,314c-12.8,0-23.2-10.4-23.2-23.2v-93.6h46.4v93.6C442.7,303.6,432.3,314,419.5,314z M400.7,201.6
				v89.3c0,10.4,8.4,18.8,18.8,18.8s18.8-8.4,18.8-18.8v-89.3L400.7,201.6L400.7,201.6z"/>
		</g>
		<g>
			<polygon class="st1" points="420,153 433.1,176.2 446.7,199.4 420,199.4 393.3,199.4 406.4,176.2 			"/>
			<path class="st2" d="M450.5,201.6h-61l15-26.5l15.5-26.5l15,26.5L450.5,201.6z M397,197.2h45.8l-11.6-19.9l-11.3-19.9l-11.6,19.9
				L397,197.2z"/>
		</g>
	</g>
	<g>
		<g>
			<polygon class="st1" points="141.7,187.6 182.4,125.9 296.1,125.9 336.8,187.6 			"/>
		</g>
		<g>
			<path class="st2" d="M294.8,128.1l38.1,57.3H145.6l38.1-57.3H294.8 M297.4,123.7H181l-43.8,66.1h203.5L297.4,123.7L297.4,123.7z"
				/>
		</g>
	</g>
	<g>
		<path class="st1" d="M261.1,160.9v-8.8l-23.6-35.4l-23.6,35.4v8.8c-7.4,6.6-12.3,16.2-12.3,27.1c0,20.1,16.2,35.9,35.9,35.9
			s35.9-16.2,35.9-35.9C273.8,177.1,269,167.4,261.1,160.9z"/>
		<path class="st2" d="M237.5,226.1c-21,0-38.1-17.1-38.1-38.1c0-10.7,4.5-20.9,12.3-28.1v-8.4l25.8-38.7l25.8,38.7v8.4
			c8.2,7.2,12.7,17.5,12.3,28.2C275.6,209,258.5,226.1,237.5,226.1z M216.1,152.8v9.1l-0.7,0.7c-7.3,6.5-11.5,15.7-11.5,25.5
			c0,18.6,15.1,33.7,33.7,33.7s33.7-15.1,33.7-33.7c0.4-9.8-3.8-19.1-11.5-25.5l-0.8-0.7v-9.1l-21.4-32.2L216.1,152.8z"/>
	</g>
	<g>
		<g>
			<rect x="190.4" y="192.3" class="st0" width="97.1" height="40.7"/>
		</g>
	</g>
	<g>
		<circle class="st1" cx="237.5" cy="176.6" r="9.6"/>
		<path class="st2" d="M237.5,188.4c-6.5,0-11.8-5.3-11.8-11.8s5.3-11.8,11.8-11.8s11.8,5.3,11.8,11.8S244,188.4,237.5,188.4z
			 M237.5,169.2c-4.1,0-7.4,3.3-7.4,7.4c0,4.1,3.3,7.4,7.4,7.4c4.1,0,7.4-3.3,7.4-7.4S241.6,169.2,237.5,169.2z"/>
	</g>
	<g>
		<g>
			<rect x="52.4" y="348.6" class="st0" width="378.5" height="40.7"/>
		</g>
	</g>
	<g>
		<rect x="417.8" y="145.6" class="st2" width="4.4" height="7.9"/>
	</g>
	<g>
		<circle class="st1" cx="420" cy="143.8" r="1.8"/>
		<path class="st2" d="M420,147.8c-2.2,0-3.9-1.8-3.9-3.9s1.8-3.9,3.9-3.9c2.2,0,3.9,1.8,3.9,3.9S422.1,147.8,420,147.8z M420,143.4
			c-0.2,0-0.4,0.2-0.4,0.4c0,0.5,0.9,0.5,0.9,0C420.4,143.6,420.2,143.4,420,143.4z"/>
	</g>
	<g>
		<rect x="179" y="117.1" class="st2" width="4.9" height="10.1"/>
	</g>
	<g>
		<circle class="st1" cx="181.5" cy="115.4" r="1.8"/>
		<path class="st2" d="M181.5,119.3c-2.2,0-3.9-1.8-3.9-3.9s1.8-3.9,3.9-3.9c2.2,0,3.9,1.8,3.9,3.9S183.7,119.3,181.5,119.3z
			 M181.5,114.9c-0.2,0-0.4,0.2-0.4,0.4c0,0.5,0.9,0.5,0.9,0C181.9,115.1,181.7,114.9,181.5,114.9z"/>
	</g>
	<g>
		<rect x="294.5" y="117.1" class="st2" width="5" height="10.1"/>
	</g>
	<g>
		<circle class="st1" cx="297" cy="115.4" r="1.8"/>
		<path class="st2" d="M297,119.3c-2.2,0-3.9-1.8-3.9-3.9s1.8-3.9,3.9-3.9c2.2,0,3.9,1.8,3.9,3.9S299.2,119.3,297,119.3z M297,114.9
			c-0.2,0-0.4,0.2-0.4,0.4c0,0.5,0.9,0.5,0.9,0C297.4,115.1,297.2,114.9,297,114.9z"/>
	</g>
	<g>
		<g>
			<path class="st1" d="M37.5,199.4v91.5c0,11.8,9.6,21,21,21s21-9.6,21-21v-91.5H37.5z"/>
			<path class="st2" d="M58.5,314c-12.8,0-23.2-10.4-23.2-23.2v-93.6h46.4v93.6C81.7,303.4,71.1,314,58.5,314z M39.7,201.6v89.3
				c0,10.4,8.4,18.8,18.8,18.8c10.2,0,18.8-8.6,18.8-18.8v-89.3L39.7,201.6L39.7,201.6z"/>
		</g>
		<g>
			<polygon class="st1" points="58.5,153 72.1,176.2 85.2,199.4 58.5,199.4 31.8,199.4 45.4,176.2 			"/>
			<path class="st2" d="M89,201.6H28l15.5-26.5l15-26.5L74,175.1L89,201.6z M35.6,197.2h45.8l-11.3-19.9l-11.6-19.9l-11.3,19.9
				L35.6,197.2z"/>
		</g>
	</g>
	<g>
		<rect x="56.3" y="145.6" class="st2" width="4.4" height="7.9"/>
	</g>
	<g>
		<circle class="st1" cx="58.5" cy="143.8" r="1.8"/>
		<path class="st2" d="M58.5,147.8c-2.2,0-3.9-1.8-3.9-3.9s1.8-3.9,3.9-3.9c2.2,0,3.9,1.8,3.9,3.9S60.7,147.8,58.5,147.8z
			 M58.5,143.4c-0.2,0-0.4,0.2-0.4,0.4c0,0.5,0.9,0.5,0.9,0C59,143.6,58.8,143.4,58.5,143.4z"/>
	</g>
</g>
</svg>
