<?xml version="1.0" encoding="utf-8"?>
<!-- Generator: Adobe Illustrator 19.1.0, SVG Export Plug-In . SVG Version: 6.00 Build 0)  -->
<svg version="1.1" id="Layer_1" xmlns="http://www.w3.org/2000/svg" xmlns:xlink="http://www.w3.org/1999/xlink" x="0px" y="0px"
	 viewBox="38 -48 100 120" style="enable-background:new 38 -48 100 120;" xml:space="preserve">
<style type="text/css">
	.st0{fill:#F3A285;}
	.st1{fill:#F3A285;stroke:#FFFBFA;stroke-miterlimit:10;}
	.st2{fill:#FFFBFA;}
	.st3{fill:#F3A285;stroke:#FFFBFA;stroke-width:1.1287;stroke-miterlimit:10;}
	.st4{fill:#F3A285;stroke:#FFFBFA;stroke-width:1.1323;stroke-miterlimit:10;}
	.st5{fill:#FFFBFA;stroke:#FFFBFA;stroke-width:0.25;stroke-linejoin:round;stroke-miterlimit:10;}
	.st6{opacity:0.84;fill:none;stroke:#FFFBFA;stroke-width:0.6528;stroke-miterlimit:10;}
</style>
<rect x="38" y="-48" class="st0" width="100" height="120"/>
<g>
	<rect x="46.7" y="-24.8" class="st1" width="82.5" height="36"/>
	<polygon class="st1" points="119.3,-40 56.7,-40 46.7,-24.8 129.3,-24.8 	"/>
	<g>
		<rect x="67.2" y="-27.9" class="st0" width="41.7" height="38.6"/>
		<path class="st2" d="M108.3-27.4v37.6H67.7v-37.6H108.3 M109.3-28.4H66.7v39.6h42.7V-28.4L109.3-28.4z"/>
	</g>
	<g>
		<path class="st1" d="M124.4-24.8v20.9c0,2.7,2.2,4.8,4.8,4.8c2.7,0,4.8-2.2,4.8-4.8v-20.9H124.4z"/>
		<polygon class="st1" points="129.3,-35.4 132.3,-30.1 135.4,-24.8 129.3,-24.8 123.2,-24.8 126.2,-30.1 		"/>
	</g>
	<g>
		<polygon class="st0" points="65.7,-27.5 75,-41.6 101,-41.6 110.3,-27.5 		"/>
		<path class="st2" d="M100.7-41.1l8.7,13.1H66.6l8.7-13.1H100.7 M101.3-42.1H74.7L64.7-27h46.5L101.3-42.1L101.3-42.1z"/>
	</g>
	<path class="st1" d="M93-33.6v-2l-5.4-8.1l-5.4,8.1v2c-1.7,1.5-2.8,3.7-2.8,6.2c0,4.6,3.7,8.2,8.2,8.2s8.2-3.7,8.2-8.2
		C95.9-29.9,94.8-32.1,93-33.6z"/>
	<g>
		<rect x="76.6" y="-26.9" class="st0" width="22.2" height="9.3"/>
	</g>
	<circle class="st1" cx="87.6" cy="-30" r="2.2"/>
	<g>
		<rect x="45.3" y="9.3" class="st0" width="86.5" height="9.3"/>
	</g>
	<line class="st1" x1="129.3" y1="-35.3" x2="129.3" y2="-37.1"/>
	<circle class="st1" cx="129.3" cy="-37.5" r="0.4"/>
	<line class="st3" x1="74.8" y1="-41.3" x2="74.8" y2="-43.6"/>
	<circle class="st1" cx="74.8" cy="-44" r="0.4"/>
	<line class="st4" x1="101.2" y1="-41.3" x2="101.2" y2="-43.6"/>
	<circle class="st1" cx="101.2" cy="-44" r="0.4"/>
	<g>
		<path class="st1" d="M41.9-24.8v20.9c0,2.7,2.2,4.8,4.8,4.8s4.8-2.2,4.8-4.8v-20.9H41.9z"/>
		<polygon class="st1" points="46.7,-35.4 49.8,-30.1 52.8,-24.8 46.7,-24.8 40.6,-24.8 43.7,-30.1 		"/>
	</g>
	<line class="st1" x1="46.7" y1="-35.3" x2="46.7" y2="-37.1"/>
	<circle class="st1" cx="46.7" cy="-37.5" r="0.4"/>
</g>
<g>
	<polygon class="st5" points="58.6,52.9 57.5,52.9 54.5,55.9 54.5,52.9 53.7,52.9 53.7,60 54.5,60 54.5,56.9 54.7,56.7 57.6,60 
		58.7,60 55.3,56.2 	"/>
	<polygon class="st5" points="59.8,60 63.5,60 63.5,59.3 60.6,59.3 60.6,56.5 63.4,56.5 63.4,55.7 60.6,55.7 60.6,53.6 63.5,53.6 
		63.5,52.9 59.8,52.9 	"/>
	<path class="st5" d="M66.4,52.9H65V60h1.4c1.3,0,2-0.3,2.6-0.8c0.5-0.4,1.3-1.2,1.3-2.7c0-1.3-0.6-2.2-1.2-2.7
		C68.2,52.9,67.1,52.9,66.4,52.9z M68.5,58.6c-0.7,0.6-1.5,0.6-2,0.6h-0.7v-5.7h0.7c1.8,0,3,1.1,3,2.8C69.5,57.5,69,58.2,68.5,58.6z
		"/>
	<polygon class="st5" points="73.4,56.1 71.6,52.9 70.7,52.9 73,56.9 73,60 73.8,60 73.8,56.9 76.2,52.9 75.2,52.9 	"/>
	<path class="st5" d="M79.3,56l-0.7-0.3c-0.3-0.1-0.5-0.2-0.8-0.5c-0.2-0.2-0.3-0.3-0.3-0.6c0-0.7,0.5-1.1,1.2-1.1
		c0.4,0,0.7,0.1,0.8,0.2c0.2,0.1,0.3,0.3,0.4,0.5l0.6-0.4c-0.2-0.3-0.4-0.6-0.7-0.8c-0.4-0.2-0.7-0.3-1.1-0.3c-1.2,0-2,0.7-2,1.8
		c0,0.5,0.2,0.9,0.5,1.2c0.3,0.3,0.7,0.5,1,0.6l0.6,0.3c0.4,0.2,0.7,0.3,0.9,0.5c0.3,0.2,0.4,0.5,0.4,0.8c0,0.7-0.5,1.4-1.4,1.4
		c-0.4,0-0.7-0.1-1-0.4c-0.2-0.2-0.4-0.5-0.4-0.9l-0.8,0.2c0.1,0.4,0.3,0.9,0.7,1.3c0.5,0.5,1.1,0.6,1.6,0.6c1.3,0,2.3-0.9,2.3-2.2
		c0-0.5-0.1-0.9-0.5-1.3C80.1,56.4,79.7,56.2,79.3,56z"/>
	<rect x="82.4" y="52.9" class="st5" width="0.8" height="7.2"/>
	<path class="st5" d="M87.6,60h0.9l0.9-2h3l0.8,2h0.9l-3.2-7.5L87.6,60z M89.6,57.3l1.2-2.9l1.2,2.9H89.6z"/>
	<path class="st5" d="M99.9,52.9h-1.5V60h1.4c1.3,0,2-0.3,2.6-0.8c0.5-0.4,1.3-1.2,1.3-2.7c0-1.3-0.6-2.2-1.2-2.7
		C101.6,52.9,100.6,52.9,99.9,52.9z M102,58.6c-0.7,0.6-1.5,0.6-2,0.6h-0.7v-5.7h0.7c1.8,0,3,1.1,3,2.8
		C102.9,57.5,102.5,58.2,102,58.6z"/>
	<polygon class="st5" points="110.8,58.4 105.2,52.6 105.2,60 106,60 106,54.5 111.6,60.3 111.6,52.9 110.8,52.9 	"/>
	<polygon class="st5" points="113.4,60 117.1,60 117.1,59.3 114.2,59.3 114.2,56.5 117,56.5 117,55.7 114.2,55.7 114.2,53.6 
		117.1,53.6 117.1,52.9 113.4,52.9 	"/>
	<path class="st5" d="M122.2,56.7c-0.3-0.3-0.7-0.5-1.1-0.7l-0.7-0.3c-0.3-0.1-0.5-0.2-0.8-0.5c-0.2-0.2-0.3-0.3-0.3-0.6
		c0-0.7,0.5-1.1,1.2-1.1c0.4,0,0.7,0.1,0.8,0.2c0.2,0.1,0.3,0.3,0.4,0.5l0.6-0.4c-0.2-0.3-0.4-0.6-0.7-0.8c-0.4-0.2-0.7-0.3-1.1-0.3
		c-1.2,0-2,0.7-2,1.8c0,0.5,0.2,0.9,0.5,1.2c0.3,0.3,0.7,0.5,1,0.6l0.6,0.3c0.4,0.2,0.7,0.3,0.9,0.5c0.3,0.2,0.4,0.5,0.4,0.8
		c0,0.7-0.5,1.4-1.4,1.4c-0.4,0-0.7-0.1-1-0.4c-0.2-0.2-0.4-0.5-0.4-0.9l-0.8,0.2c0.1,0.4,0.3,0.9,0.7,1.3c0.5,0.5,1.1,0.6,1.6,0.6
		c1.3,0,2.3-0.9,2.3-2.2C122.7,57.4,122.5,57,122.2,56.7z"/>
</g>
<g>
	<path class="st2" d="M55.4,36.6H50V21.8c0-0.3-0.2-0.5-0.5-0.5h-4.4c-0.3,0-0.5,0.2-0.5,0.5v19c0,0.3,0.2,0.5,0.5,0.5h10.3
		c0.3,0,0.5-0.2,0.5-0.5v-3.7C55.9,36.8,55.7,36.6,55.4,36.6z"/>
	<path class="st2" d="M69.7,21.3H59c-0.3,0-0.5,0.2-0.5,0.5v19c0,0.3,0.2,0.5,0.5,0.5h10.7c0.3,0,0.5-0.2,0.5-0.5v-3.7
		c0-0.3-0.2-0.5-0.5-0.5h-5.8v-3.2h5.5c0.3,0,0.5-0.2,0.5-0.5v-3.7c0-0.3-0.2-0.5-0.5-0.5h-5.5V26h5.8c0.3,0,0.5-0.2,0.5-0.5v-3.7
		C70.2,21.5,70,21.3,69.7,21.3z"/>
	<path class="st2" d="M91.5,21.3h-4.7c-0.2,0-0.4,0.1-0.5,0.3l-4.3,11l-4.3-11c-0.1-0.2-0.3-0.3-0.5-0.3h-4.7
		c-0.2,0-0.3,0.1-0.4,0.2c-0.1,0.1-0.1,0.3,0,0.5l8,19c0.1,0.2,0.3,0.3,0.5,0.3h3c0.2,0,0.4-0.1,0.5-0.3l8-19c0.1-0.2,0-0.3,0-0.5
		C91.8,21.4,91.7,21.3,91.5,21.3z"/>
	<path class="st2" d="M98.7,21.3h-4.4c-0.3,0-0.5,0.2-0.5,0.5v19c0,0.3,0.2,0.5,0.5,0.5h4.4c0.3,0,0.5-0.2,0.5-0.5v-19
		C99.2,21.5,99,21.3,98.7,21.3z"/>
	<path class="st2" d="M116.9,22c-1.7-0.7-3.3-1.1-4.7-1.1c-2.9,0-5.5,1-7.4,2.9c-2,1.9-3.1,4.6-3.1,7.5c0,2.9,1.1,5.6,3.1,7.5
		c2,1.9,4.6,2.9,7.8,2.9c1,0,2.5-0.1,4.4-1.1c0.2-0.1,0.3-0.3,0.3-0.4v-5c0-0.2-0.1-0.4-0.3-0.5c-0.2-0.1-0.4,0-0.5,0.1
		c-1.2,1.2-2.6,1.8-4,1.8c-2.1,0-3.3-1-3.7-1.5c-0.6-0.5-1.5-1.8-1.5-3.8c0-1.5,0.6-3,1.6-4c0.9-0.9,2.1-1.3,3.5-1.3
		c1.5,0,2.9,0.6,4.1,1.9c0.1,0.1,0.4,0.2,0.5,0.1c0.2-0.1,0.3-0.3,0.3-0.5v-5.1C117.2,22.2,117,22,116.9,22z"/>
	<path class="st2" d="M131.5,26c0.3,0,0.5-0.2,0.5-0.5v-3.7c0-0.3-0.2-0.5-0.5-0.5h-10.7c-0.3,0-0.5,0.2-0.5,0.5v19
		c0,0.3,0.2,0.5,0.5,0.5h10.7c0.3,0,0.5-0.2,0.5-0.5v-3.7c0-0.3-0.2-0.5-0.5-0.5h-5.8v-3.2h5.5c0.3,0,0.5-0.2,0.5-0.5v-3.7
		c0-0.3-0.2-0.5-0.5-0.5h-5.5V26H131.5z"/>
</g>
<line class="st6" x1="81.4" y1="68.9" x2="94.6" y2="68.9"/>
</svg>
